<svg xmlns="http://www.w3.org/2000/svg" xmlns:xlink="http://www.w3.org/1999/xlink" viewBox="0 0 175.75 175.55"><defs><style>.cls-1{fill:none;}.cls-2{clip-path:url(#clip-path);}.cls-3{fill:#312783;}.cls-3,.cls-4{fill-rule:evenodd;}.cls-4{fill:#ffed00;}</style><clipPath id="clip-path" transform="translate(0 0)"><rect class="cls-1" width="175.75" height="175.55"/></clipPath></defs><title>logo-itau</title><g id="Layer_2" data-name="Layer 2"><g id="Layer_1-2" data-name="Layer 1"><g class="cls-2"><path class="cls-3" d="M29.32,0h117.1A28,28,0,0,1,167,8.54a27.88,27.88,0,0,1,8.74,20.78v117.1a29.5,29.5,0,0,1-29.33,29.13H29.32A28.42,28.42,0,0,1,8.55,167,28.28,28.28,0,0,1,0,146.42V29.32A28.43,28.43,0,0,1,8.55,8.54,28.42,28.42,0,0,1,29.32,0" transform="translate(0 0)"/><path class="cls-4" d="M134.19,99.62h9.52l11.65-11.84H142.54Zm-3.5,2.91H117.1V128c0,6.8,1.75,11.85,5.05,15.15,2.91,2.91,6.8,4.27,11.65,4.27,6.8,0,11.85-2.71,14.95-8h.2v7h12V102.53H147.4v25.64a9.21,9.21,0,0,1-.39,2.72,8.41,8.41,0,0,1-8.35,5.63c-5.25,0-8-3.69-8-10.88ZM95.74,117.1c-8.93,0-15.73,1.36-20.39,4.27A14.14,14.14,0,0,0,68,134.19a12.68,12.68,0,0,0,3.88,9.13,15.64,15.64,0,0,0,11.07,4.07c6,0,10.49-1.94,13.6-5.63h.38v4.66h12.43V120.6c0-5.83-1.55-10.3-4.46-13.6-3.5-3.69-8.74-5.63-15.73-5.63-7.19,0-13.21,1.36-17.87,4.27l2.52,8.55a24.68,24.68,0,0,1,13-3.5c6,0,8.93,1.94,8.93,6ZM62.53,102.53H54.18V87.78H41v14.75H34.76v10.1H41V130.3c0,6,1.16,10.49,3.69,13,2.52,2.71,6.21,4.07,10.68,4.07a21,21,0,0,0,7.38-1.16l-.2-10.29a3.63,3.63,0,0,1-2.52.58,5.09,5.09,0,0,1-4.66-2.33c-.78-1.17-1.17-3.11-1.17-6V112.63h8.35ZM80.59,133c0-5.24,5.24-7.57,15.54-7.38v4.66l-.2,2.53a7.56,7.56,0,0,1-3.3,4.08A8.27,8.27,0,0,1,87,138.85q-6.41,0-6.41-5.83m-66,13.4H28.35V87.78H14.56Z" transform="translate(0 0)"/></g></g></g></svg>