<svg xmlns="http://www.w3.org/2000/svg" xmlns:xlink="http://www.w3.org/1999/xlink" viewBox="0 0 102.8 71.95"><defs><style>.cls-1{fill:none;}.cls-2{clip-path:url(#clip-path);}.cls-3{fill:#00a0df;}.cls-4,.cls-5{fill:#fff;}.cls-5{fill-rule:evenodd;}</style><clipPath id="clip-path" transform="translate(0 0)"><rect class="cls-1" width="102.8" height="71.95"/></clipPath></defs><title>logo-salesforce</title><g id="Layer_2" data-name="Layer 2"><g id="Layer_1-2" data-name="Layer 1"><g class="cls-2"><path class="cls-3" d="M42.78,7.85a18,18,0,0,1,13-5.6,18.21,18.21,0,0,1,15.86,9.4,22,22,0,0,1,9-1.9,22.36,22.36,0,0,1,0,44.71A21.64,21.64,0,0,1,76.27,54,16.21,16.21,0,0,1,55,60.69a18.48,18.48,0,0,1-34.36-.84,17,17,0,0,1-3.52.37A17.37,17.37,0,0,1,8.58,27.87a20,20,0,0,1,34.2-20" transform="translate(0 0)"/><path class="cls-4" d="M14.89,37.31a.2.2,0,0,0,0,.24,6.08,6.08,0,0,0,.59.35,6.34,6.34,0,0,0,3.07.72c2.11,0,3.42-1.12,3.42-2.93v0c0-1.67-1.48-2.28-2.86-2.72L19,32.88c-1-.34-1.95-.63-1.95-1.32v0c0-.59.53-1,1.35-1a6.1,6.1,0,0,1,2.67.69s.21.13.28-.07L21.75,30a.2.2,0,0,0-.1-.24,6,6,0,0,0-3-.81h-.21c-1.93,0-3.28,1.17-3.28,2.84v0c0,1.75,1.49,2.33,2.88,2.72l.22.08c1,.31,1.89.57,1.89,1.29v0c0,.66-.57,1.14-1.48,1.14a4.94,4.94,0,0,1-2.72-.78l-.35-.22c-.06,0-.21-.1-.27.1Z" transform="translate(0 0)"/><path class="cls-4" d="M45.76,37.31a.18.18,0,0,0,0,.24,5.08,5.08,0,0,0,.59.35,6.34,6.34,0,0,0,3.07.72c2.11,0,3.42-1.12,3.42-2.93v0c0-1.67-1.48-2.28-2.86-2.72l-.18-.06c-1.05-.34-2-.63-2-1.32v0c0-.59.53-1,1.34-1a6.11,6.11,0,0,1,2.68.69s.21.13.28-.07L52.62,30a.2.2,0,0,0-.1-.24,6,6,0,0,0-3-.81h-.21c-1.93,0-3.28,1.17-3.28,2.84v0c0,1.75,1.48,2.33,2.88,2.72l.22.08c1,.31,1.89.57,1.89,1.29v0c0,.66-.57,1.14-1.48,1.14a4.92,4.92,0,0,1-2.72-.78l-.35-.22a.18.18,0,0,0-.27.1Z" transform="translate(0 0)"/><path class="cls-4" d="M68.59,31.88a4.22,4.22,0,0,0-.8-1.53,3.83,3.83,0,0,0-1.35-1A4.46,4.46,0,0,0,64.55,29a4.41,4.41,0,0,0-1.88.38,3.87,3.87,0,0,0-1.36,1,4.55,4.55,0,0,0-.8,1.53,7,7,0,0,0,0,3.79,4.65,4.65,0,0,0,.8,1.53,3.73,3.73,0,0,0,1.36,1,5,5,0,0,0,3.77,0,3.69,3.69,0,0,0,1.35-1,4.3,4.3,0,0,0,.8-1.53,7,7,0,0,0,0-3.79m-1.76,1.89a4.41,4.41,0,0,1-.56,2.4,1.89,1.89,0,0,1-1.72.83,1.86,1.86,0,0,1-1.7-.83,4.41,4.41,0,0,1-.56-2.4,4.32,4.32,0,0,1,.56-2.38,1.86,1.86,0,0,1,1.7-.83,1.89,1.89,0,0,1,1.72.83,4.32,4.32,0,0,1,.56,2.38" transform="translate(0 0)"/><path class="cls-5" d="M83.05,36.73a.17.17,0,0,0-.23-.1,4.91,4.91,0,0,1-.82.23,7,7,0,0,1-1,.07,2.68,2.68,0,0,1-2-.76,3.35,3.35,0,0,1-.76-2.4,3.72,3.72,0,0,1,.67-2.32,2.31,2.31,0,0,1,2-.86,5.69,5.69,0,0,1,1.86.27s.14.06.2-.13c.16-.42.27-.73.43-1.2a.16.16,0,0,0-.11-.21A6.41,6.41,0,0,0,82.11,29a8.55,8.55,0,0,0-1.32-.09,4.79,4.79,0,0,0-2,.38,4.1,4.1,0,0,0-1.42,1,4.32,4.32,0,0,0-.85,1.53,6.1,6.1,0,0,0-.29,1.9,5,5,0,0,0,1.17,3.5,4.44,4.44,0,0,0,3.47,1.31,7,7,0,0,0,2.5-.45.17.17,0,0,0,.07-.21Z" transform="translate(0 0)"/><path class="cls-5" d="M92.05,31.55a3.76,3.76,0,0,0-.76-1.39,3.4,3.4,0,0,0-1.13-.87A4.53,4.53,0,0,0,88.45,29a4.65,4.65,0,0,0-2,.38,4.08,4.08,0,0,0-1.37,1.05,4.35,4.35,0,0,0-.8,1.54A6.53,6.53,0,0,0,84,33.83a6.41,6.41,0,0,0,.28,1.9,3.9,3.9,0,0,0,.86,1.51,3.79,3.79,0,0,0,1.5,1,5.63,5.63,0,0,0,2.16.35,6.25,6.25,0,0,0,3-.59c.07,0,.13-.1,0-.28l-.39-1.1a.17.17,0,0,0-.22-.1,5.82,5.82,0,0,1-2.45.44,2.43,2.43,0,0,1-2.73-2.68h6a.17.17,0,0,0,.17-.15,6.4,6.4,0,0,0-.18-2.57M86.13,32.8a3.45,3.45,0,0,1,.48-1.41,1.88,1.88,0,0,1,1.7-.86,1.84,1.84,0,0,1,1.67.86,3,3,0,0,1,.4,1.41Z" transform="translate(0 0)"/><path class="cls-5" d="M44.33,31.55a3.76,3.76,0,0,0-.76-1.39,3.4,3.4,0,0,0-1.13-.87,4.52,4.52,0,0,0-1.7-.34,4.59,4.59,0,0,0-2,.38,4,4,0,0,0-1.38,1.05,4.35,4.35,0,0,0-.8,1.54,6.89,6.89,0,0,0-.26,1.91,6.42,6.42,0,0,0,.27,1.9A3.8,3.8,0,0,0,39,38.23a5.66,5.66,0,0,0,2.16.35,6.25,6.25,0,0,0,3-.59c.07,0,.13-.1.05-.28l-.39-1.1a.17.17,0,0,0-.22-.1,5.78,5.78,0,0,1-2.45.44,2.43,2.43,0,0,1-2.73-2.68h6a.17.17,0,0,0,.17-.15,6.19,6.19,0,0,0-.18-2.57M38.41,32.8a3.45,3.45,0,0,1,.48-1.41,1.88,1.88,0,0,1,1.7-.86,1.83,1.83,0,0,1,1.67.86,2.89,2.89,0,0,1,.4,1.41Z" transform="translate(0 0)"/><path class="cls-4" d="M27.9,32.51q-.36,0-.93,0a5.92,5.92,0,0,0-1.47.19,3.93,3.93,0,0,0-1.24.58,2.89,2.89,0,0,0-.86,1,2.79,2.79,0,0,0-.32,1.38A3.17,3.17,0,0,0,23.35,37a2.42,2.42,0,0,0,.78.93,3.17,3.17,0,0,0,1.21.52,7,7,0,0,0,1.58.17,10.88,10.88,0,0,0,1.81-.16c.58-.1,1.3-.24,1.5-.29l.42-.1a.2.2,0,0,0,.13-.2V32.39a3.34,3.34,0,0,0-1-2.63,4.08,4.08,0,0,0-2.74-.82,9.41,9.41,0,0,0-1.59.15,5.76,5.76,0,0,0-1.84.67.17.17,0,0,0-.05.23L24,31.13a.15.15,0,0,0,.2.09l.09,0a6,6,0,0,1,2.6-.61,2.36,2.36,0,0,1,1.47.39c.33.25.49.62.49,1.41v.26c-.51-.08-1-.12-1-.12M25.53,36.7a1.14,1.14,0,0,1-.34-.35,1.45,1.45,0,0,1-.18-.78,1.29,1.29,0,0,1,.53-1.15A2.64,2.64,0,0,1,27.27,34a12.59,12.59,0,0,1,1.61.13v2.71a13,13,0,0,1-1.6.22,2.69,2.69,0,0,1-1.75-.35" transform="translate(0 0)"/><path class="cls-5" d="M76,29.44a.16.16,0,0,0-.09-.21,4.81,4.81,0,0,0-1-.17,3,3,0,0,0-1.54.24,2.62,2.62,0,0,0-1,.75v-.73a.18.18,0,0,0-.18-.18H70.63a.17.17,0,0,0-.17.18v8.89a.18.18,0,0,0,.18.18H72.2a.18.18,0,0,0,.18-.18V33.77a5.19,5.19,0,0,1,.2-1.56,2.21,2.21,0,0,1,.52-.88,2,2,0,0,1,.74-.45,3.06,3.06,0,0,1,.8-.11,3.32,3.32,0,0,1,.65.08c.12,0,.18-.05.22-.16L76,29.44" transform="translate(0 0)"/><path class="cls-5" d="M61.26,25.32a4.27,4.27,0,0,0-.59-.14,4.66,4.66,0,0,0-.8-.06,3.4,3.4,0,0,0-2.53.91,5,5,0,0,0-1.2,2.7l-.07.4H54.72a.21.21,0,0,0-.2.17l-.22,1.24c0,.12,0,.2.19.2h1.32l-1.34,7.45a9.14,9.14,0,0,1-.35,1.47,2.92,2.92,0,0,1-.42.85,1.11,1.11,0,0,1-.55.42,2.15,2.15,0,0,1-.7.1A2.5,2.5,0,0,1,52,41a1.28,1.28,0,0,1-.33-.11.16.16,0,0,0-.21.1L51,42.18a.18.18,0,0,0,.09.24,5.28,5.28,0,0,0,.54.16,3.51,3.51,0,0,0,.87.08A4.4,4.4,0,0,0,54,42.43a2.73,2.73,0,0,0,1.1-.76,4,4,0,0,0,.77-1.34,10.79,10.79,0,0,0,.53-2l1.34-7.59h2a.21.21,0,0,0,.2-.18l.22-1.24c0-.12,0-.19-.19-.19H58a8.35,8.35,0,0,1,.32-1.34,1.7,1.7,0,0,1,.42-.64,1.24,1.24,0,0,1,.5-.31,2.06,2.06,0,0,1,.64-.09,2.28,2.28,0,0,1,.48.05l.31.07c.19.06.22,0,.26-.09l.45-1.25a.16.16,0,0,0-.11-.21" transform="translate(0 0)"/><path class="cls-5" d="M34.65,38.21a.17.17,0,0,1-.17.18H32.9a.18.18,0,0,1-.18-.18V25.49a.18.18,0,0,1,.18-.18h1.58a.17.17,0,0,1,.17.18Z" transform="translate(0 0)"/></g></g></g></svg>